# File created by Blade
# Date/Time:  Tue Jan 27 19:32:46 2015
#---------------------------------------------------------
:version 1.10
:name HOM
:units
  mass 1.0
  length 1.000000
  angle deg
:documentation
     Acclaim Skeleton File
:root
   axis xyz
   order TX TY TZ RX RY RZ
   position 0.000000 0.000000 0.000000
   orientation 0 0 0
:bonedata
   begin
      id 1
      name Spine_dum
      direction 0.000000 1.000000 0.000000
      length 6.116652
      axis 0.0 0.0 0.0 xyz
   end
   begin
      id 2
      name LeftUpLeg_dum
      direction 1.000000 0.000000 0.000000
      length 4.711765
      axis 0.0 0.0 0.0 xyz
   end
   begin
      id 3
      name RightUpLeg_dum
      direction -1.000000 0.000000 0.000000
      length 4.711765
      axis 0.0 0.0 0.0 xyz
   end
   begin
      id 4
      name Spine
      direction 0.000000 1.000000 0.000000
      length 0.000000
      axis 0.0 0.0 0.0 xyz
      dof rx ry rz
   end
   begin
      id 5
      name Spine_dum1
      direction 0.000000 1.000000 0.000000
      length 15.225563
      axis 0.0 0.0 0.0 xyz
   end
   begin
      id 6
      name Spine_dum2
      direction 0.000000 1.000000 0.000000
      length 8.977654
      axis 0.0 0.0 0.0 xyz
   end
   begin
      id 7
      name Spine_dum3
      direction 0.000000 1.000000 0.000000
      length 8.977654
      axis 0.0 0.0 0.0 xyz
   end
   begin
      id 8
      name Head
      direction 0.000000 1.000000 0.000000
      length 4.527550
      axis 0.0 0.0 0.0 xyz
      dof rx ry rz
   end
   begin
      id 9
      name LeftShoulder
      direction 1.000000 0.000000 0.000000
      length 7.110130
      axis 0.0 0.0 -90.0 xyz
      dof rx ry rz
   end
   begin
      id 10
      name LeftArm
      direction 1.000000 0.000000 0.000000
      length 10.398341
      axis 0.0 0.0 -90.0 xyz
      dof rx ry rz
   end
   begin
      id 11
      name LeftForeArm
      direction 1.000000 0.000000 0.000000
      length 8.888997
      axis 0.0 0.0 -90.0 xyz
      dof ry rz rx
   end
   begin
      id 12
      name LeftHand
      direction 0.000000 0.000000 0.000000
      length 0.000000
      axis 0.0 0.0 -90.0 xyz
      dof rx ry rz
   end
   begin
      id 13
      name LeftHand_dum1
      direction 0.000000 0.000000 0.000000
      length 0.000000
      axis 0.0 0.0 -90.0 xyz
   end
   begin
      id 14
      name LeftHand_dum2
      direction 1.000000 0.000000 0.000000
      length 3.937000
      axis 0.0 0.0 -90.0 xyz
   end
   begin
      id 15
      name LeftHandThumb1
      direction 0.000000 0.000000 1.000000
      length 3.937000
      axis 0.0 0.0 -90.0 xyz
      dof rx rz ry
   end
   begin
      id 16
      name RightShoulder
      direction -1.000000 0.000000 0.000000
      length 7.110130
      axis 0.0 0.0 90.0 xyz
      dof rx ry rz
   end
   begin
      id 17
      name RightArm
      direction -1.000000 0.000000 0.000000
      length 10.398341
      axis 0.0 0.0 90.0 xyz
      dof rx ry rz
   end
   begin
      id 18
      name RightForeArm
      direction -1.000000 0.000000 0.000000
      length 8.888997
      axis 0.0 0.0 90.0 xyz
      dof ry rz rx
   end
   begin
      id 19
      name RightHand
      direction 0.000000 0.000000 0.000000
      length 0.000000
      axis 0.0 0.0 90.0 xyz
      dof rx ry rz
   end
   begin
      id 20
      name RightHand_dum1
      direction 0.000000 0.000000 0.000000
      length 0.000000
      axis 0.0 0.0 90.0 xyz
   end
   begin
      id 21
      name RightHand_dum2
      direction -1.000000 0.000000 0.000000
      length 3.937000
      axis 0.0 0.0 90.0 xyz
   end
   begin
      id 22
      name RightHandThumb1
      direction 0.000000 0.000000 1.000000
      length 3.937000
      axis 0.0 0.0 90.0 xyz
      dof rx rz ry
   end
   begin
      id 23
      name LeftUpLeg
      direction 0.000000 -1.000000 0.000000
      length 15.510451
      axis 0.0 0.0 0.0 xyz
      dof rx ry rz
   end
   begin
      id 24
      name LeftLeg
      direction 0.000000 -1.000000 0.000000
      length 14.858061
      axis 0.0 0.0 0.0 xyz
      dof rx ry rz
   end
   begin
      id 25
      name LeftFoot
      direction 0.000000 -0.258819 0.965926
      length 5.128852
      axis 15.0 0.0 0.0 xyz
      dof rx ry rz
   end
   begin
      id 26
      name LeftToeBase
      direction 0.000000 0.000000 1.000000
      length 2.952750
      axis 0.0 0.0 0.0 xyz
      dof rx ry rz
   end
   begin
      id 27
      name RightUpLeg
      direction 0.000000 -1.000000 0.000000
      length 15.510451
      axis 0.0 0.0 0.0 xyz
      dof rx ry rz
   end
   begin
      id 28
      name RightLeg
      direction 0.000000 -1.000000 0.000000
      length 14.858061
      axis 0.0 0.0 0.0 xyz
      dof rx ry rz
   end
   begin
      id 29
      name RightFoot
      direction 0.000000 -0.258819 0.965926
      length 5.128852
      axis 15.0 0.0 0.0 xyz
      dof rx ry rz
   end
   begin
      id 30
      name RightToeBase
      direction 0.000000 0.000000 1.000000
      length 2.952750
      axis 0.0 0.0 0.0 xyz
      dof rx ry rz
   end
:hierarchy
   begin
      root Spine_dum LeftUpLeg_dum RightUpLeg_dum
      Spine_dum Spine
      LeftUpLeg_dum LeftUpLeg
      RightUpLeg_dum RightUpLeg
      Spine Spine_dum1 Spine_dum2 Spine_dum3
      Spine_dum1 Head
      Spine_dum2 LeftShoulder
      Spine_dum3 RightShoulder
      LeftShoulder LeftArm
      LeftArm LeftForeArm
      LeftForeArm LeftHand
      LeftHand LeftHand_dum1 LeftHand_dum2
      LeftHand_dum1 LeftHandThumb1
      RightShoulder RightArm
      RightArm RightForeArm
      RightForeArm RightHand
      RightHand RightHand_dum1 RightHand_dum2
      RightHand_dum1 RightHandThumb1
      LeftUpLeg LeftLeg
      LeftLeg LeftFoot
      LeftFoot LeftToeBase
      RightUpLeg RightLeg
      RightLeg RightFoot
      RightFoot RightToeBase
   end

# File created by Blade
# Date/Time:  Tue Jan 27 19:32:37 2015
# Frame Rate: 120.000 fps
#------------------------------------------------------
:FULLY-SPECIFIED
:DEGREES
652
root 4.379444 32.231819 -0.317926 -4.894522 13.887332 1.459277
Spine 2.131899 28.454422 1.699976
Head 5.301304 -20.784749 9.126871
LeftShoulder 2.737825 -14.385978 24.045088
LeftArm 0.652486 51.366562 -104.005683
LeftForeArm 2.142466 -0.000000 9.710227
LeftHand 10.073635 -0.000000 -7.599552
LeftHandThumb1 -26.253704 0.000000 33.147579
RightShoulder 3.977479 15.967544 -33.701556
RightArm 57.879750 -36.053685 92.169446
RightForeArm -3.633654 -0.000000 102.492639
RightHand 25.734726 -0.000000 -2.917323
RightHandThumb1 -24.326973 -0.000000 -32.862282
LeftUpLeg 9.796279 -7.775485 -4.282590
LeftLeg 2.832667 -0.000000 -0.000000
LeftFoot -18.017803 15.282707 -20.773723
LeftToeBase 16.459620 -0.000000 -0.000000
RightUpLeg 13.513178 -19.754490 -2.858040
RightLeg -0.967534 -0.000000 0.000000
RightFoot -14.562885 -14.586565 16.151638
RightToeBase 10.049715 -0.000000 -0.000000
653
root 4.377377 32.232268 -0.321568 -4.859399 13.842635 1.450014
Spine 2.095017 28.534482 1.681961
Head 5.271609 -20.791818 9.172704
LeftShoulder 2.790496 -14.383593 24.038763
LeftArm 0.699574 51.352924 -103.980031
LeftForeArm 2.194127 -0.000000 9.651442
LeftHand 10.082765 0.000000 -7.634819
LeftHandThumb1 -26.253704 0.000000 33.147579
RightShoulder 3.899837 15.928580 -33.764242
RightArm 56.992808 -35.446291 93.472509
RightForeArm -3.266276 -0.000000 102.821719
RightHand 25.753942 -0.000000 -2.618152
RightHandThumb1 -24.326973 -0.000000 -32.862282
LeftUpLeg 9.762192 -7.765496 -4.269131
LeftLeg 2.823423 -0.000000 -0.000000
LeftFoot -18.033078 15.303630 -20.781984
LeftToeBase 16.464984 -0.000000 -0.000000
RightUpLeg 13.462824 -19.707260 -2.823742
RightLeg -0.981402 -0.000000 0.000000
RightFoot -14.561077 -14.590246 16.170262
RightToeBase 10.145415 -0.000000 -0.000000
654
root 4.377770 32.233279 -0.322961 -4.841186 13.798151 1.446391
Spine 2.071700 28.604380 1.660667
Head 5.232976 -20.784563 9.243635
LeftShoulder 2.829648 -14.397585 24.041621
LeftArm 0.695005 51.305212 -103.997821
LeftForeArm 2.261663 -0.000000 9.600964
LeftHand 10.115584 0.000000 -7.614965
LeftHandThumb1 -26.253704 0.000000 33.147579
RightShoulder 3.888369 15.997148 -33.777570
RightArm 55.994784 -34.756868 94.806109
RightForeArm -3.086917 -0.000000 103.228573
RightHand 25.642502 -0.000000 -3.051399
RightHandThumb1 -24.326973 -0.000000 -32.862282
LeftUpLeg 9.748916 -7.775282 -4.271953
LeftLeg 2.815291 -0.000000 -0.000000
LeftFoot -18.040407 15.364825 -20.792499
LeftToeBase 16.472686 -0.000000 -0.000000
RightUpLeg 13.443685 -19.700257 -2.815813
RightLeg -1.005852 -0.000000 0.000000
RightFoot -14.514741 -14.570290 16.156884
RightToeBase 10.114689 -0.000000 -0.000000
655
root 4.378629 32.234221 -0.324760 -4.821717 13.764255 1.447970
Spine 2.047394 28.671577 1.632189
Head 5.185187 -20.784764 9.315777
LeftShoulder 2.860089 -14.399628 24.043680
LeftArm 0.714274 51.213729 -103.993878
LeftForeArm 2.298029 -0.000000 9.563388
LeftHand 10.236121 0.000000 -7.973543
LeftHandThumb1 -26.253704 0.000000 33.147579
RightShoulder 3.860785 16.028879 -33.812394
RightArm 55.015840 -33.998175 96.161461
RightForeArm -2.794329 -0.000000 103.625879
RightHand 25.769889 0.000000 -2.922361
RightHandThumb1 -24.326973 -0.000000 -32.862282
LeftUpLeg 9.730053 -7.732206 -4.267960
LeftLeg 2.813220 -0.000000 -0.000000
LeftFoot -18.038344 15.359064 -20.796510
LeftToeBase 16.493563 -0.000000 -0.000000
RightUpLeg 13.425694 -19.684776 -2.811326
RightLeg -1.029510 -0.000000 0.000000
RightFoot -14.484464 -14.557138 16.139076
RightToeBase 10.096960 -0.000000 -0.000000
656
root 4.378587 32.235006 -0.326289 -4.805008 13.741822 1.442597
Spine 2.022219 28.742603 1.609146
Head 5.148896 -20.816314 9.374674
LeftShoulder 2.911319 -14.408034 24.041518
LeftArm 0.722459 51.122144 -103.992834
LeftForeArm 2.323392 0.000000 9.540609
LeftHand 10.243144 -0.000000 -7.939627
LeftHandThumb1 -26.253704 0.000000 33.147579
RightShoulder 3.802343 16.001526 -33.877823
RightArm 54.077046 -33.210503 97.520707
RightForeArm -2.495474 0.000000 104.046833
RightHand 25.886630 0.000000 -2.898735
RightHandThumb1 -24.326973 -0.000000 -32.862282
LeftUpLeg 9.713471 -7.736952 -4.264811
LeftLeg 2.810188 -0.000000 -0.000000
LeftFoot -18.031136 15.381625 -20.794324
LeftToeBase 16.435223 -0.000000 -0.000000
RightUpLeg 13.415054 -19.657153 -2.794161
RightLeg -1.062147 -0.000000 0.000000
RightFoot -14.455236 -14.571225 16.138375
RightToeBase 10.111240 -0.000000 -0.000000
657
root 4.377741 32.234707 -0.328162 -4.801650 13.728717 1.435199
Spine 2.010138 28.834403 1.580949
Head 5.114183 -20.892593 9.455301
LeftShoulder 2.995437 -14.428726 24.055312
LeftArm 0.745025 51.024942 -103.992521
LeftForeArm 2.348917 0.000000 9.520545
LeftHand 10.266286 0.000000 -7.890472
LeftHandThumb1 -26.253704 0.000000 33.147579
RightShoulder 3.707712 15.862527 -33.927651
RightArm 53.292889 -32.370591 98.789911
RightForeArm -1.922553 -0.000000 104.518074
RightHand 25.835969 -0.000000 -2.671846
RightHandThumb1 -24.326973 -0.000000 -32.862282
LeftUpLeg 9.709399 -7.734564 -4.256182
LeftLeg 2.804756 -0.000000 -0.000000
LeftFoot -18.016852 15.361058 -20.835606
LeftToeBase 16.282732 -0.000000 -0.000000
RightUpLeg 13.414803 -19.633675 -2.776699
RightLeg -1.090223 -0.000000 0.000000
RightFoot -14.443841 -14.596441 16.133749
RightToeBase 10.059778 -0.000000 -0.000000
658
root 4.379616 32.234551 -0.328954 -4.800123 13.739462 1.435775
Spine 2.008275 28.810548 1.565929
Head 5.067784 -20.877856 9.473672
LeftShoulder 2.988207 -14.460723 24.060826
LeftArm 0.671289 50.924419 -104.045555
LeftForeArm 2.347067 -0.000000 9.527658
LeftHand 10.265984 -0.000000 -7.868310
LeftHandThumb1 -26.253704 0.000000 33.147579
RightShoulder 3.720935 15.859851 -33.947966
RightArm 52.447978 -31.504744 100.082026
RightForeArm -1.646156 -0.000000 104.981500
RightHand 25.746604 -0.000000 -2.746170
RightHandThumb1 -24.326973 -0.000000 -32.862282
LeftUpLeg 9.713178 -7.774124 -4.268125
LeftLeg 2.792286 -0.000000 -0.000000
LeftFoot -18.047754 15.421670 -20.796382
LeftToeBase 16.449108 -0.000000 -0.000000
RightUpLeg 13.419252 -19.716485 -2.796300
RightLeg -1.091408 -0.000000 0.000000
RightFoot -14.419860 -14.544044 16.084052
RightToeBase 10.080579 -0.000000 -0.000000
